<svg width="57" height="27" viewBox="0 0 57 27" fill="none" xmlns="http://www.w3.org/2000/svg">
<path d="M49.7938 14.1663L49.7923 14.1661C48.2615 13.9177 47.0114 13.136 45.9787 11.9493L45.9773 11.9478C44.7045 10.501 43.9914 8.83623 43.9914 6.90325C43.9914 5.46811 44.466 4.23574 45.5524 3.30028C46.4431 2.5412 48.6118 1.7607 50.6744 2.72427C51.8922 3.29431 52.3073 4.00254 52.4051 4.58625C52.5075 5.19783 52.2767 5.75468 52.0677 6.0196L52.0676 6.01955L52.0628 6.02598L51.0037 7.42916C50.6124 7.93958 50.9702 8.68272 51.6282 8.68272H54.2376C55.017 8.68272 55.5747 7.94041 55.3973 7.20235L55.3973 7.20234L55.3961 7.19755L55.0699 5.9152L55.07 5.91519L55.0684 5.90947C54.2292 2.81543 51.4106 0.645752 48.1829 0.645752H44.6765H40.2526C39.6409 0.645752 39.1634 1.19673 39.2936 1.80628L39.6186 3.61118L39.6187 3.61222C40.8134 10.1421 40.8133 16.8538 39.5986 23.383L39.5985 23.383L39.5973 23.3899L39.5774 23.5096C39.3138 24.9778 40.4452 26.3506 41.9447 26.3506H51.4039C53.7727 26.3506 55.6727 24.4314 55.6727 22.0878V11.6255V11.6255V11.6255V11.6255V11.6255V11.6255V11.6254V11.6254V11.6254V11.6254V11.6254V11.6253V11.6253V11.6253V11.6253V11.6253V11.6253V11.6252V11.6252V11.6252V11.6252V11.6252V11.6252V11.6251V11.6251V11.6251V11.6251V11.6251V11.625V11.625V11.625V11.625V11.625V11.6249V11.6249V11.6249V11.6249V11.6248V11.6248V11.6248V11.6248V11.6247V11.6247V11.6247V11.6246V11.6246V11.6246V11.6246V11.6246V11.6246V11.6245V11.6245V11.6245V11.6245V11.6245V11.6245V11.6244V11.6244V11.6244V11.6244V11.6244V11.6244V11.6243V11.6243V11.6243V11.6243V11.6243V11.6242V11.6242V11.6242V11.6242V11.6242V11.6241V11.6241V11.6241V11.6241V11.6241V11.624V11.624V11.624V11.624V11.624V11.6239V11.6239V11.6239V11.6239V11.6239V11.6238V11.6238V11.6238V11.6238V11.6237V11.6237V11.6237V11.6237V11.6236V11.6236V11.6236V11.6236V11.6235V11.6235V11.6235V11.6235V11.6234V11.6234V11.6234V11.6234V11.6233V11.6233V11.6233V11.6232V11.6232V11.6232V11.6232V11.6231V11.6231V11.6231V11.623V11.623V11.623V11.623V11.6229V11.6229V11.6229V11.6228V11.6228V11.6228V11.6227V11.6227V11.6227V11.6226V11.6226V11.6226V11.6225V11.6225V11.6225V11.6224V11.6224V11.6224V11.6223V11.6223V11.6223V11.6222V11.6222V11.6222V11.6221V11.6221V11.6221V11.622V11.622V11.6219V11.6219V11.6219V11.6218V11.6218V11.6218V11.6217V11.6217V11.6216V11.6216V11.6216V11.6215V11.6215V11.6214V11.6214V11.6214V11.6213V11.6213V11.6212V11.6212V11.6211V11.6211V11.6211V11.621V11.621V11.6209V11.6209V11.6208V11.6208V11.6207V11.6207V11.6207V11.6206V11.6206V11.6205V11.6205V11.6204V11.6204V11.6203V11.6203V11.6202V11.6202V11.6201V11.6201V11.62V11.62V11.6199V11.6199V11.6198V11.6198V11.6197V11.6197V11.6196V11.6196V11.6195V11.6195V11.6194V11.6194V11.6193V11.6193V11.6192V11.6191V11.6191V11.619V11.619V11.6189V11.6189V11.6188V11.6187V11.6187V11.6186V11.6186V11.6185V11.6185V11.6184V11.6183V11.6183V11.6182V11.6182V11.6181V11.618V11.618V11.6179V11.6179V11.6178V11.6177V11.6177V11.6176V11.6175V11.6175V11.6174V11.6173V11.6173V11.6172V11.6171V11.6171V11.617V11.6169V11.6169V11.6168V11.6167V11.6167V11.6166V11.6165V11.6165V11.6164V11.6163V11.6163V11.6162V11.6161V11.616V11.616V11.6159V11.6158V11.6158V11.6157V11.6156V11.6155V11.6155V11.6154V11.6153V11.6152V11.6152V11.6151V11.615V11.6149V11.6149V11.6148V11.6147V11.6146V11.6145V11.6145V11.6144V11.6143V11.6142V11.6141V11.6141V11.614V11.6139V11.6138V11.6137V11.6136V11.6136V11.6135V11.6134V11.6133V11.6132V11.6131V11.6131V11.613V11.6129V11.6128V11.6127V11.6126V11.6125V11.6124V11.6123V11.6123V11.6122V11.6121V11.612V11.6119V11.6118V11.6117V11.6116V11.6115V11.6114V11.6113V11.6112V11.6112V11.6111V11.611V11.6109V11.6108V11.6107V11.6106V11.6105V11.6104V11.6103V11.6102V11.6101V11.61V11.6099V11.6098V11.6097V11.6096V11.6095V11.6094V11.6093V11.6092V11.6091V11.609V11.6089V11.6088V11.6087V11.6086V11.6084V11.6083V11.6082V11.6081V11.608V11.6079V11.6078V11.6077V11.6076V11.6075V11.6074V11.6073V11.6071V11.607V11.6069V11.6068V11.6067V11.6066V11.6065V11.6063V11.6062V11.6061V11.606V11.6059V11.6058V11.6057V11.6055V11.6054V11.6053V11.6052C55.6727 11.2921 55.4336 11.1119 55.2212 11.0753C55.0158 11.04 54.7294 11.1223 54.6205 11.4123L54.6195 11.4148C54.4131 11.9769 54.0938 12.5035 53.6591 12.9761C52.5952 14.0736 51.2787 14.4134 49.7938 14.1663Z" fill="#543923" stroke="#543923" stroke-width="0.75"/>
<path d="M0.742576 2.14079L0.742579 2.14079L0.682213 1.95997C0.457978 1.31433 0.917847 0.649658 1.60794 0.649658H7.17339C13.1085 0.649658 17.9454 5.47822 17.9454 11.4055V13.1153C17.9454 16.6076 16.8793 19.9047 15.1737 22.3375C13.4713 24.7658 11.097 26.3748 8.47811 26.3748H2.36223C1.29556 26.3748 0.556072 25.3657 0.815395 24.3643L1.69056 20.4829L0.742576 2.14079ZM0.742576 2.14079L0.743069 2.14224M0.742576 2.14079L0.743069 2.14224M0.743069 2.14224C2.73901 8.04028 3.06186 14.3818 1.69062 20.4827L0.743069 2.14224ZM9.73127 2.78365L9.72735 2.78375C8.50457 2.80223 7.49159 3.35371 6.6432 4.18051C5.75176 5.09086 5.17442 6.11141 4.86548 7.2874L4.86535 7.28789C4.39454 9.07031 4.46009 10.7786 5.34101 12.385L9.73127 2.78365ZM9.73127 2.78365C11.1774 2.74663 12.2898 3.4031 13.1263 4.58008L13.1263 4.5801M9.73127 2.78365L13.1263 4.5801M13.1263 4.5801L13.1293 4.58418M13.1263 4.5801L13.1293 4.58418M13.1293 4.58418C14.0039 5.78014 14.2974 7.1536 14.2196 8.63584M13.1293 4.58418L14.2196 8.63584M14.2196 8.63584C14.102 10.4689 13.461 12.0672 12.1694 13.3575C11.1887 14.317 10.0476 14.8475 8.69237 14.7364C7.15445 14.6066 6.09092 13.7479 5.34124 12.3854L14.2196 8.63584Z" fill="#543923" stroke="#543923" stroke-width="0.75"/>
<path d="M30.1886 14.1659L30.1871 14.1657C28.6563 13.9173 27.4062 13.1356 26.3735 11.9489L26.3722 11.9474C25.0994 10.5006 24.3862 8.83584 24.3862 6.90285C24.3862 5.46493 24.8625 4.21491 25.945 3.30175L25.9451 3.30177L25.9481 3.29911C26.3547 2.94857 26.7999 2.70588 27.2511 2.53578C27.6703 2.40243 27.7649 1.87717 27.4768 1.58953L27.2118 1.8549L27.4768 1.58953L27.4736 1.58633C27.3325 1.44547 27.1225 1.23573 26.9307 1.06556L26.9308 1.06548L26.9238 1.05957C26.5949 0.781735 26.1841 0.625 25.7644 0.625H23.3181H21.4018C20.7093 0.625 20.2488 1.31466 20.4782 1.94152L20.8241 2.91658L20.8241 2.91658L20.8251 2.91937C23.2771 9.6621 22.8547 17.1264 19.6197 23.5263L19.619 23.5275C18.9646 24.8343 19.9189 26.3705 21.361 26.3705H26.2129H27.9254C30.0224 26.3705 32.0341 25.5374 33.5111 24.0626L33.7762 23.798C35.2547 22.3217 36.0675 20.3123 36.0675 18.2404V11.6251V11.6251V11.6251V11.6251V11.6251V11.6251V11.625V11.625V11.625V11.625V11.625V11.625V11.625V11.6249V11.6249V11.6249V11.6249V11.6249V11.6248V11.6248V11.6248V11.6248V11.6248V11.6248V11.6247V11.6247V11.6247V11.6247V11.6247V11.6247V11.6246V11.6246V11.6246V11.6246V11.6245V11.6245V11.6245V11.6245V11.6245V11.6244V11.6244V11.6244V11.6244V11.6243V11.6243V11.6243V11.6243V11.6243V11.6243V11.6242V11.6242V11.6242V11.6242V11.6242V11.6242V11.6241V11.6241V11.6241V11.6241V11.6241V11.6241V11.624V11.624V11.624V11.624V11.624V11.624V11.6239V11.6239V11.6239V11.6239V11.6239V11.6238V11.6238V11.6238V11.6238V11.6238V11.6238V11.6237V11.6237V11.6237V11.6237V11.6237V11.6236V11.6236V11.6236V11.6236V11.6235V11.6235V11.6235V11.6235V11.6235V11.6234V11.6234V11.6234V11.6234V11.6233V11.6233V11.6233V11.6233V11.6232V11.6232V11.6232V11.6232V11.6231V11.6231V11.6231V11.6231V11.623V11.623V11.623V11.623V11.6229V11.6229V11.6229V11.6229V11.6228V11.6228V11.6228V11.6227V11.6227V11.6227V11.6227V11.6226V11.6226V11.6226V11.6225V11.6225V11.6225V11.6224V11.6224V11.6224V11.6223V11.6223V11.6223V11.6222V11.6222V11.6222V11.6222V11.6221V11.6221V11.6221V11.622V11.622V11.6219V11.6219V11.6219V11.6218V11.6218V11.6218V11.6217V11.6217V11.6217V11.6216V11.6216V11.6216V11.6215V11.6215V11.6214V11.6214V11.6214V11.6213V11.6213V11.6212V11.6212V11.6212V11.6211V11.6211V11.621V11.621V11.621V11.6209V11.6209V11.6208V11.6208V11.6207V11.6207V11.6207V11.6206V11.6206V11.6205V11.6205V11.6204V11.6204V11.6204V11.6203V11.6203V11.6202V11.6202V11.6201V11.6201V11.62V11.62V11.6199V11.6199V11.6198V11.6198V11.6197V11.6197V11.6196V11.6196V11.6195V11.6195V11.6194V11.6194V11.6193V11.6193V11.6192V11.6192V11.6191V11.6191V11.619V11.619V11.6189V11.6189V11.6188V11.6187V11.6187V11.6186V11.6186V11.6185V11.6185V11.6184V11.6184V11.6183V11.6182V11.6182V11.6181V11.6181V11.618V11.6179V11.6179V11.6178V11.6178V11.6177V11.6176V11.6176V11.6175V11.6175V11.6174V11.6173V11.6173V11.6172V11.6171V11.6171V11.617V11.6169V11.6169V11.6168V11.6167V11.6167V11.6166V11.6165V11.6165V11.6164V11.6163V11.6163V11.6162V11.6161V11.6161V11.616V11.6159V11.6159V11.6158V11.6157V11.6156V11.6156V11.6155V11.6154V11.6154V11.6153V11.6152V11.6151V11.6151V11.615V11.6149V11.6148V11.6148V11.6147V11.6146V11.6145V11.6145V11.6144V11.6143V11.6142V11.6141V11.6141V11.614V11.6139V11.6138V11.6137V11.6137V11.6136V11.6135V11.6134V11.6133V11.6132V11.6132V11.6131V11.613V11.6129V11.6128V11.6127V11.6127V11.6126V11.6125V11.6124V11.6123V11.6122V11.6121V11.612V11.612V11.6119V11.6118V11.6117V11.6116V11.6115V11.6114V11.6113V11.6112V11.6111V11.611V11.6109V11.6109V11.6108V11.6107V11.6106V11.6105V11.6104V11.6103V11.6102V11.6101V11.61V11.6099V11.6098V11.6097V11.6096V11.6095V11.6094V11.6093V11.6092V11.6091V11.609V11.6089V11.6088V11.6087V11.6086V11.6085V11.6084V11.6083V11.6082V11.608V11.6079V11.6078V11.6077V11.6076V11.6075V11.6074V11.6073V11.6072V11.6071V11.607V11.6069V11.6067V11.6066V11.6065V11.6064V11.6063V11.6062V11.6061V11.606V11.6058V11.6057V11.6056V11.6055V11.6054V11.6053V11.6051V11.605V11.6049V11.6048C36.0675 11.2917 35.8285 11.1115 35.616 11.0749C35.4106 11.0396 35.1242 11.1219 35.0153 11.4119L35.0122 11.4201L35.0095 11.4284C34.8255 11.9979 34.512 12.4992 34.0568 12.9728C32.9924 14.0726 31.6748 14.4133 30.1886 14.1659Z" fill="#543923" stroke="#543923" stroke-width="0.75"/>
</svg>
